<mxfile host="app.diagrams.net" modified="2020-09-18T00:45:52.753Z" agent="5.0 (Macintosh; Intel Mac OS X 10_15_6) AppleWebKit/605.1.15 (KHTML, like Gecko) Version/13.1.2 Safari/605.1.15" etag="5iBSH3HodcgfQGVwbqnQ" version="13.7.3" type="github">
  <diagram id="C5RBs43oDa-KdzZeNtuy" name="Page-1">
    <mxGraphModel dx="1261" dy="916" grid="1" gridSize="10" guides="1" tooltips="1" connect="1" arrows="1" fold="1" page="1" pageScale="1" pageWidth="827" pageHeight="1169" math="0" shadow="0">
      <root>
        <mxCell id="WIyWlLk6GJQsqaUBKTNV-0" />
        <mxCell id="WIyWlLk6GJQsqaUBKTNV-1" parent="WIyWlLk6GJQsqaUBKTNV-0" />
        <mxCell id="WIyWlLk6GJQsqaUBKTNV-2" value="" style="rounded=0;html=1;jettySize=auto;orthogonalLoop=1;fontSize=11;endArrow=block;endFill=0;endSize=8;strokeWidth=1;shadow=0;labelBackgroundColor=none;edgeStyle=orthogonalEdgeStyle;" parent="WIyWlLk6GJQsqaUBKTNV-1" source="WIyWlLk6GJQsqaUBKTNV-3" edge="1">
          <mxGeometry relative="1" as="geometry">
            <mxPoint x="220" y="120" as="targetPoint" />
          </mxGeometry>
        </mxCell>
        <mxCell id="WIyWlLk6GJQsqaUBKTNV-3" value="SetUp" style="rounded=1;whiteSpace=wrap;html=1;fontSize=12;glass=0;strokeWidth=1;shadow=0;" parent="WIyWlLk6GJQsqaUBKTNV-1" vertex="1">
          <mxGeometry x="160" y="30" width="120" height="40" as="geometry" />
        </mxCell>
        <mxCell id="diTY_OehHmzAD5Bzxsb2-2" style="edgeStyle=orthogonalEdgeStyle;rounded=0;orthogonalLoop=1;jettySize=auto;html=1;" edge="1" parent="WIyWlLk6GJQsqaUBKTNV-1" source="WIyWlLk6GJQsqaUBKTNV-7" target="diTY_OehHmzAD5Bzxsb2-1">
          <mxGeometry relative="1" as="geometry" />
        </mxCell>
        <mxCell id="WIyWlLk6GJQsqaUBKTNV-7" value="EBombillo1Dere" style="rounded=1;whiteSpace=wrap;html=1;fontSize=12;glass=0;strokeWidth=1;shadow=0;" parent="WIyWlLk6GJQsqaUBKTNV-1" vertex="1">
          <mxGeometry x="320" y="190" width="110" height="40" as="geometry" />
        </mxCell>
        <mxCell id="diTY_OehHmzAD5Bzxsb2-8" value="" style="edgeStyle=orthogonalEdgeStyle;rounded=0;orthogonalLoop=1;jettySize=auto;html=1;" edge="1" parent="WIyWlLk6GJQsqaUBKTNV-1" source="diTY_OehHmzAD5Bzxsb2-0" target="WIyWlLk6GJQsqaUBKTNV-7">
          <mxGeometry relative="1" as="geometry" />
        </mxCell>
        <mxCell id="diTY_OehHmzAD5Bzxsb2-0" value="EBombillo1Izq" style="rounded=1;whiteSpace=wrap;html=1;fontSize=12;glass=0;strokeWidth=1;shadow=0;" vertex="1" parent="WIyWlLk6GJQsqaUBKTNV-1">
          <mxGeometry x="160" y="190" width="120" height="40" as="geometry" />
        </mxCell>
        <mxCell id="diTY_OehHmzAD5Bzxsb2-13" style="edgeStyle=orthogonalEdgeStyle;rounded=0;orthogonalLoop=1;jettySize=auto;html=1;" edge="1" parent="WIyWlLk6GJQsqaUBKTNV-1" source="diTY_OehHmzAD5Bzxsb2-1" target="diTY_OehHmzAD5Bzxsb2-6">
          <mxGeometry relative="1" as="geometry">
            <Array as="points">
              <mxPoint x="530" y="260" />
              <mxPoint x="220" y="260" />
            </Array>
          </mxGeometry>
        </mxCell>
        <mxCell id="diTY_OehHmzAD5Bzxsb2-1" value="Delay &amp;nbsp;X Time" style="rounded=1;whiteSpace=wrap;html=1;fontSize=12;glass=0;strokeWidth=1;shadow=0;" vertex="1" parent="WIyWlLk6GJQsqaUBKTNV-1">
          <mxGeometry x="470" y="190" width="120" height="40" as="geometry" />
        </mxCell>
        <mxCell id="diTY_OehHmzAD5Bzxsb2-4" style="edgeStyle=orthogonalEdgeStyle;rounded=0;orthogonalLoop=1;jettySize=auto;html=1;" edge="1" parent="WIyWlLk6GJQsqaUBKTNV-1" source="diTY_OehHmzAD5Bzxsb2-5" target="diTY_OehHmzAD5Bzxsb2-7">
          <mxGeometry relative="1" as="geometry" />
        </mxCell>
        <mxCell id="diTY_OehHmzAD5Bzxsb2-5" value="EBombillo2Dere" style="rounded=1;whiteSpace=wrap;html=1;fontSize=12;glass=0;strokeWidth=1;shadow=0;" vertex="1" parent="WIyWlLk6GJQsqaUBKTNV-1">
          <mxGeometry x="320" y="300" width="110" height="40" as="geometry" />
        </mxCell>
        <mxCell id="diTY_OehHmzAD5Bzxsb2-9" value="" style="edgeStyle=orthogonalEdgeStyle;rounded=0;orthogonalLoop=1;jettySize=auto;html=1;" edge="1" parent="WIyWlLk6GJQsqaUBKTNV-1" source="diTY_OehHmzAD5Bzxsb2-6" target="diTY_OehHmzAD5Bzxsb2-5">
          <mxGeometry relative="1" as="geometry" />
        </mxCell>
        <mxCell id="diTY_OehHmzAD5Bzxsb2-6" value="EBombillo2Izq" style="rounded=1;whiteSpace=wrap;html=1;fontSize=12;glass=0;strokeWidth=1;shadow=0;" vertex="1" parent="WIyWlLk6GJQsqaUBKTNV-1">
          <mxGeometry x="160" y="300" width="120" height="40" as="geometry" />
        </mxCell>
        <mxCell id="diTY_OehHmzAD5Bzxsb2-19" style="edgeStyle=orthogonalEdgeStyle;rounded=0;orthogonalLoop=1;jettySize=auto;html=1;" edge="1" parent="WIyWlLk6GJQsqaUBKTNV-1" source="diTY_OehHmzAD5Bzxsb2-7" target="diTY_OehHmzAD5Bzxsb2-17">
          <mxGeometry relative="1" as="geometry">
            <Array as="points">
              <mxPoint x="530" y="360" />
              <mxPoint x="220" y="360" />
            </Array>
          </mxGeometry>
        </mxCell>
        <mxCell id="diTY_OehHmzAD5Bzxsb2-7" value="Delay &amp;nbsp;X Time" style="rounded=1;whiteSpace=wrap;html=1;fontSize=12;glass=0;strokeWidth=1;shadow=0;" vertex="1" parent="WIyWlLk6GJQsqaUBKTNV-1">
          <mxGeometry x="470" y="300" width="120" height="40" as="geometry" />
        </mxCell>
        <mxCell id="diTY_OehHmzAD5Bzxsb2-11" value="" style="edgeStyle=orthogonalEdgeStyle;rounded=0;orthogonalLoop=1;jettySize=auto;html=1;" edge="1" parent="WIyWlLk6GJQsqaUBKTNV-1" source="diTY_OehHmzAD5Bzxsb2-10" target="diTY_OehHmzAD5Bzxsb2-0">
          <mxGeometry relative="1" as="geometry" />
        </mxCell>
        <mxCell id="diTY_OehHmzAD5Bzxsb2-10" value="Loop" style="rounded=1;whiteSpace=wrap;html=1;fontSize=12;glass=0;strokeWidth=1;shadow=0;" vertex="1" parent="WIyWlLk6GJQsqaUBKTNV-1">
          <mxGeometry x="160" y="120" width="120" height="40" as="geometry" />
        </mxCell>
        <mxCell id="diTY_OehHmzAD5Bzxsb2-14" style="edgeStyle=orthogonalEdgeStyle;rounded=0;orthogonalLoop=1;jettySize=auto;html=1;" edge="1" parent="WIyWlLk6GJQsqaUBKTNV-1" source="diTY_OehHmzAD5Bzxsb2-15" target="diTY_OehHmzAD5Bzxsb2-18">
          <mxGeometry relative="1" as="geometry" />
        </mxCell>
        <mxCell id="diTY_OehHmzAD5Bzxsb2-15" value="EBombillo3Dere" style="rounded=1;whiteSpace=wrap;html=1;fontSize=12;glass=0;strokeWidth=1;shadow=0;" vertex="1" parent="WIyWlLk6GJQsqaUBKTNV-1">
          <mxGeometry x="320" y="390" width="110" height="40" as="geometry" />
        </mxCell>
        <mxCell id="diTY_OehHmzAD5Bzxsb2-16" value="" style="edgeStyle=orthogonalEdgeStyle;rounded=0;orthogonalLoop=1;jettySize=auto;html=1;" edge="1" parent="WIyWlLk6GJQsqaUBKTNV-1" source="diTY_OehHmzAD5Bzxsb2-17" target="diTY_OehHmzAD5Bzxsb2-15">
          <mxGeometry relative="1" as="geometry" />
        </mxCell>
        <mxCell id="diTY_OehHmzAD5Bzxsb2-17" value="EBombillo3Izq" style="rounded=1;whiteSpace=wrap;html=1;fontSize=12;glass=0;strokeWidth=1;shadow=0;" vertex="1" parent="WIyWlLk6GJQsqaUBKTNV-1">
          <mxGeometry x="160" y="390" width="120" height="40" as="geometry" />
        </mxCell>
        <mxCell id="diTY_OehHmzAD5Bzxsb2-30" style="edgeStyle=orthogonalEdgeStyle;rounded=0;orthogonalLoop=1;jettySize=auto;html=1;" edge="1" parent="WIyWlLk6GJQsqaUBKTNV-1" source="diTY_OehHmzAD5Bzxsb2-18" target="diTY_OehHmzAD5Bzxsb2-23">
          <mxGeometry relative="1" as="geometry">
            <Array as="points">
              <mxPoint x="530" y="450" />
              <mxPoint x="220" y="450" />
            </Array>
          </mxGeometry>
        </mxCell>
        <mxCell id="diTY_OehHmzAD5Bzxsb2-18" value="Delay &amp;nbsp;X Time" style="rounded=1;whiteSpace=wrap;html=1;fontSize=12;glass=0;strokeWidth=1;shadow=0;" vertex="1" parent="WIyWlLk6GJQsqaUBKTNV-1">
          <mxGeometry x="470" y="390" width="120" height="40" as="geometry" />
        </mxCell>
        <mxCell id="diTY_OehHmzAD5Bzxsb2-20" style="edgeStyle=orthogonalEdgeStyle;rounded=0;orthogonalLoop=1;jettySize=auto;html=1;" edge="1" parent="WIyWlLk6GJQsqaUBKTNV-1" source="diTY_OehHmzAD5Bzxsb2-21" target="diTY_OehHmzAD5Bzxsb2-24">
          <mxGeometry relative="1" as="geometry" />
        </mxCell>
        <mxCell id="diTY_OehHmzAD5Bzxsb2-21" value="EBombillo4Dere" style="rounded=1;whiteSpace=wrap;html=1;fontSize=12;glass=0;strokeWidth=1;shadow=0;" vertex="1" parent="WIyWlLk6GJQsqaUBKTNV-1">
          <mxGeometry x="320" y="480" width="110" height="40" as="geometry" />
        </mxCell>
        <mxCell id="diTY_OehHmzAD5Bzxsb2-22" value="" style="edgeStyle=orthogonalEdgeStyle;rounded=0;orthogonalLoop=1;jettySize=auto;html=1;" edge="1" parent="WIyWlLk6GJQsqaUBKTNV-1" source="diTY_OehHmzAD5Bzxsb2-23" target="diTY_OehHmzAD5Bzxsb2-21">
          <mxGeometry relative="1" as="geometry" />
        </mxCell>
        <mxCell id="diTY_OehHmzAD5Bzxsb2-23" value="EBombillo4Izq" style="rounded=1;whiteSpace=wrap;html=1;fontSize=12;glass=0;strokeWidth=1;shadow=0;" vertex="1" parent="WIyWlLk6GJQsqaUBKTNV-1">
          <mxGeometry x="160" y="480" width="120" height="40" as="geometry" />
        </mxCell>
        <mxCell id="diTY_OehHmzAD5Bzxsb2-31" style="edgeStyle=orthogonalEdgeStyle;rounded=0;orthogonalLoop=1;jettySize=auto;html=1;" edge="1" parent="WIyWlLk6GJQsqaUBKTNV-1" source="diTY_OehHmzAD5Bzxsb2-24" target="diTY_OehHmzAD5Bzxsb2-28">
          <mxGeometry relative="1" as="geometry">
            <Array as="points">
              <mxPoint x="530" y="540" />
              <mxPoint x="220" y="540" />
            </Array>
          </mxGeometry>
        </mxCell>
        <mxCell id="diTY_OehHmzAD5Bzxsb2-24" value="Delay &amp;nbsp;X Time" style="rounded=1;whiteSpace=wrap;html=1;fontSize=12;glass=0;strokeWidth=1;shadow=0;" vertex="1" parent="WIyWlLk6GJQsqaUBKTNV-1">
          <mxGeometry x="470" y="480" width="120" height="40" as="geometry" />
        </mxCell>
        <mxCell id="diTY_OehHmzAD5Bzxsb2-25" style="edgeStyle=orthogonalEdgeStyle;rounded=0;orthogonalLoop=1;jettySize=auto;html=1;" edge="1" parent="WIyWlLk6GJQsqaUBKTNV-1" source="diTY_OehHmzAD5Bzxsb2-26" target="diTY_OehHmzAD5Bzxsb2-29">
          <mxGeometry relative="1" as="geometry" />
        </mxCell>
        <mxCell id="diTY_OehHmzAD5Bzxsb2-26" value="EBombillo5Dere" style="rounded=1;whiteSpace=wrap;html=1;fontSize=12;glass=0;strokeWidth=1;shadow=0;" vertex="1" parent="WIyWlLk6GJQsqaUBKTNV-1">
          <mxGeometry x="320" y="560" width="110" height="40" as="geometry" />
        </mxCell>
        <mxCell id="diTY_OehHmzAD5Bzxsb2-27" value="" style="edgeStyle=orthogonalEdgeStyle;rounded=0;orthogonalLoop=1;jettySize=auto;html=1;" edge="1" parent="WIyWlLk6GJQsqaUBKTNV-1" source="diTY_OehHmzAD5Bzxsb2-28" target="diTY_OehHmzAD5Bzxsb2-26">
          <mxGeometry relative="1" as="geometry" />
        </mxCell>
        <mxCell id="diTY_OehHmzAD5Bzxsb2-28" value="EBombillo5Izq" style="rounded=1;whiteSpace=wrap;html=1;fontSize=12;glass=0;strokeWidth=1;shadow=0;" vertex="1" parent="WIyWlLk6GJQsqaUBKTNV-1">
          <mxGeometry x="160" y="560" width="120" height="40" as="geometry" />
        </mxCell>
        <mxCell id="diTY_OehHmzAD5Bzxsb2-62" style="edgeStyle=orthogonalEdgeStyle;rounded=0;orthogonalLoop=1;jettySize=auto;html=1;" edge="1" parent="WIyWlLk6GJQsqaUBKTNV-1" source="diTY_OehHmzAD5Bzxsb2-29" target="diTY_OehHmzAD5Bzxsb2-32">
          <mxGeometry relative="1" as="geometry">
            <Array as="points">
              <mxPoint x="530" y="620" />
              <mxPoint x="220" y="620" />
            </Array>
          </mxGeometry>
        </mxCell>
        <mxCell id="diTY_OehHmzAD5Bzxsb2-29" value="Delay &amp;nbsp;X Time" style="rounded=1;whiteSpace=wrap;html=1;fontSize=12;glass=0;strokeWidth=1;shadow=0;" vertex="1" parent="WIyWlLk6GJQsqaUBKTNV-1">
          <mxGeometry x="470" y="560" width="120" height="40" as="geometry" />
        </mxCell>
        <mxCell id="diTY_OehHmzAD5Bzxsb2-63" value="" style="edgeStyle=orthogonalEdgeStyle;rounded=0;orthogonalLoop=1;jettySize=auto;html=1;" edge="1" parent="WIyWlLk6GJQsqaUBKTNV-1" source="diTY_OehHmzAD5Bzxsb2-32" target="diTY_OehHmzAD5Bzxsb2-36">
          <mxGeometry relative="1" as="geometry" />
        </mxCell>
        <mxCell id="diTY_OehHmzAD5Bzxsb2-32" value="FINLoopE" style="rounded=1;whiteSpace=wrap;html=1;fontSize=12;glass=0;strokeWidth=1;shadow=0;" vertex="1" parent="WIyWlLk6GJQsqaUBKTNV-1">
          <mxGeometry x="160" y="640" width="120" height="40" as="geometry" />
        </mxCell>
        <mxCell id="diTY_OehHmzAD5Bzxsb2-33" style="edgeStyle=orthogonalEdgeStyle;rounded=0;orthogonalLoop=1;jettySize=auto;html=1;" edge="1" parent="WIyWlLk6GJQsqaUBKTNV-1" source="diTY_OehHmzAD5Bzxsb2-34" target="diTY_OehHmzAD5Bzxsb2-38">
          <mxGeometry relative="1" as="geometry" />
        </mxCell>
        <mxCell id="diTY_OehHmzAD5Bzxsb2-34" value="PBombillo1Dere" style="rounded=1;whiteSpace=wrap;html=1;fontSize=12;glass=0;strokeWidth=1;shadow=0;" vertex="1" parent="WIyWlLk6GJQsqaUBKTNV-1">
          <mxGeometry x="320" y="720" width="110" height="40" as="geometry" />
        </mxCell>
        <mxCell id="diTY_OehHmzAD5Bzxsb2-35" value="" style="edgeStyle=orthogonalEdgeStyle;rounded=0;orthogonalLoop=1;jettySize=auto;html=1;" edge="1" parent="WIyWlLk6GJQsqaUBKTNV-1" source="diTY_OehHmzAD5Bzxsb2-36" target="diTY_OehHmzAD5Bzxsb2-34">
          <mxGeometry relative="1" as="geometry" />
        </mxCell>
        <mxCell id="diTY_OehHmzAD5Bzxsb2-36" value="PBombillo1Izq" style="rounded=1;whiteSpace=wrap;html=1;fontSize=12;glass=0;strokeWidth=1;shadow=0;" vertex="1" parent="WIyWlLk6GJQsqaUBKTNV-1">
          <mxGeometry x="160" y="720" width="120" height="40" as="geometry" />
        </mxCell>
        <mxCell id="diTY_OehHmzAD5Bzxsb2-37" style="edgeStyle=orthogonalEdgeStyle;rounded=0;orthogonalLoop=1;jettySize=auto;html=1;" edge="1" parent="WIyWlLk6GJQsqaUBKTNV-1" source="diTY_OehHmzAD5Bzxsb2-38" target="diTY_OehHmzAD5Bzxsb2-42">
          <mxGeometry relative="1" as="geometry">
            <Array as="points">
              <mxPoint x="530" y="790" />
              <mxPoint x="220" y="790" />
            </Array>
          </mxGeometry>
        </mxCell>
        <mxCell id="diTY_OehHmzAD5Bzxsb2-38" value="Delay &amp;nbsp;X Time" style="rounded=1;whiteSpace=wrap;html=1;fontSize=12;glass=0;strokeWidth=1;shadow=0;" vertex="1" parent="WIyWlLk6GJQsqaUBKTNV-1">
          <mxGeometry x="470" y="720" width="120" height="40" as="geometry" />
        </mxCell>
        <mxCell id="diTY_OehHmzAD5Bzxsb2-39" style="edgeStyle=orthogonalEdgeStyle;rounded=0;orthogonalLoop=1;jettySize=auto;html=1;" edge="1" parent="WIyWlLk6GJQsqaUBKTNV-1" source="diTY_OehHmzAD5Bzxsb2-40" target="diTY_OehHmzAD5Bzxsb2-44">
          <mxGeometry relative="1" as="geometry" />
        </mxCell>
        <mxCell id="diTY_OehHmzAD5Bzxsb2-40" value="PBombillo2Dere" style="rounded=1;whiteSpace=wrap;html=1;fontSize=12;glass=0;strokeWidth=1;shadow=0;" vertex="1" parent="WIyWlLk6GJQsqaUBKTNV-1">
          <mxGeometry x="320" y="830" width="110" height="40" as="geometry" />
        </mxCell>
        <mxCell id="diTY_OehHmzAD5Bzxsb2-41" value="" style="edgeStyle=orthogonalEdgeStyle;rounded=0;orthogonalLoop=1;jettySize=auto;html=1;" edge="1" parent="WIyWlLk6GJQsqaUBKTNV-1" source="diTY_OehHmzAD5Bzxsb2-42" target="diTY_OehHmzAD5Bzxsb2-40">
          <mxGeometry relative="1" as="geometry" />
        </mxCell>
        <mxCell id="diTY_OehHmzAD5Bzxsb2-42" value="PBombillo2Izq" style="rounded=1;whiteSpace=wrap;html=1;fontSize=12;glass=0;strokeWidth=1;shadow=0;" vertex="1" parent="WIyWlLk6GJQsqaUBKTNV-1">
          <mxGeometry x="160" y="830" width="120" height="40" as="geometry" />
        </mxCell>
        <mxCell id="diTY_OehHmzAD5Bzxsb2-43" style="edgeStyle=orthogonalEdgeStyle;rounded=0;orthogonalLoop=1;jettySize=auto;html=1;" edge="1" parent="WIyWlLk6GJQsqaUBKTNV-1" source="diTY_OehHmzAD5Bzxsb2-44" target="diTY_OehHmzAD5Bzxsb2-48">
          <mxGeometry relative="1" as="geometry">
            <Array as="points">
              <mxPoint x="530" y="890" />
              <mxPoint x="220" y="890" />
            </Array>
          </mxGeometry>
        </mxCell>
        <mxCell id="diTY_OehHmzAD5Bzxsb2-44" value="Delay &amp;nbsp;X Time" style="rounded=1;whiteSpace=wrap;html=1;fontSize=12;glass=0;strokeWidth=1;shadow=0;" vertex="1" parent="WIyWlLk6GJQsqaUBKTNV-1">
          <mxGeometry x="470" y="830" width="120" height="40" as="geometry" />
        </mxCell>
        <mxCell id="diTY_OehHmzAD5Bzxsb2-45" style="edgeStyle=orthogonalEdgeStyle;rounded=0;orthogonalLoop=1;jettySize=auto;html=1;" edge="1" parent="WIyWlLk6GJQsqaUBKTNV-1" source="diTY_OehHmzAD5Bzxsb2-46" target="diTY_OehHmzAD5Bzxsb2-50">
          <mxGeometry relative="1" as="geometry" />
        </mxCell>
        <mxCell id="diTY_OehHmzAD5Bzxsb2-46" value="PBombillo3Dere" style="rounded=1;whiteSpace=wrap;html=1;fontSize=12;glass=0;strokeWidth=1;shadow=0;" vertex="1" parent="WIyWlLk6GJQsqaUBKTNV-1">
          <mxGeometry x="320" y="920" width="110" height="40" as="geometry" />
        </mxCell>
        <mxCell id="diTY_OehHmzAD5Bzxsb2-47" value="" style="edgeStyle=orthogonalEdgeStyle;rounded=0;orthogonalLoop=1;jettySize=auto;html=1;" edge="1" parent="WIyWlLk6GJQsqaUBKTNV-1" source="diTY_OehHmzAD5Bzxsb2-48" target="diTY_OehHmzAD5Bzxsb2-46">
          <mxGeometry relative="1" as="geometry" />
        </mxCell>
        <mxCell id="diTY_OehHmzAD5Bzxsb2-48" value="PBombillo3Izq" style="rounded=1;whiteSpace=wrap;html=1;fontSize=12;glass=0;strokeWidth=1;shadow=0;" vertex="1" parent="WIyWlLk6GJQsqaUBKTNV-1">
          <mxGeometry x="160" y="920" width="120" height="40" as="geometry" />
        </mxCell>
        <mxCell id="diTY_OehHmzAD5Bzxsb2-49" style="edgeStyle=orthogonalEdgeStyle;rounded=0;orthogonalLoop=1;jettySize=auto;html=1;" edge="1" parent="WIyWlLk6GJQsqaUBKTNV-1" source="diTY_OehHmzAD5Bzxsb2-50" target="diTY_OehHmzAD5Bzxsb2-54">
          <mxGeometry relative="1" as="geometry">
            <Array as="points">
              <mxPoint x="530" y="980" />
              <mxPoint x="220" y="980" />
            </Array>
          </mxGeometry>
        </mxCell>
        <mxCell id="diTY_OehHmzAD5Bzxsb2-50" value="Delay &amp;nbsp;X Time" style="rounded=1;whiteSpace=wrap;html=1;fontSize=12;glass=0;strokeWidth=1;shadow=0;" vertex="1" parent="WIyWlLk6GJQsqaUBKTNV-1">
          <mxGeometry x="470" y="920" width="120" height="40" as="geometry" />
        </mxCell>
        <mxCell id="diTY_OehHmzAD5Bzxsb2-51" style="edgeStyle=orthogonalEdgeStyle;rounded=0;orthogonalLoop=1;jettySize=auto;html=1;" edge="1" parent="WIyWlLk6GJQsqaUBKTNV-1" source="diTY_OehHmzAD5Bzxsb2-52" target="diTY_OehHmzAD5Bzxsb2-56">
          <mxGeometry relative="1" as="geometry" />
        </mxCell>
        <mxCell id="diTY_OehHmzAD5Bzxsb2-52" value="PBombillo4Dere" style="rounded=1;whiteSpace=wrap;html=1;fontSize=12;glass=0;strokeWidth=1;shadow=0;" vertex="1" parent="WIyWlLk6GJQsqaUBKTNV-1">
          <mxGeometry x="320" y="1010" width="110" height="40" as="geometry" />
        </mxCell>
        <mxCell id="diTY_OehHmzAD5Bzxsb2-53" value="" style="edgeStyle=orthogonalEdgeStyle;rounded=0;orthogonalLoop=1;jettySize=auto;html=1;" edge="1" parent="WIyWlLk6GJQsqaUBKTNV-1" source="diTY_OehHmzAD5Bzxsb2-54" target="diTY_OehHmzAD5Bzxsb2-52">
          <mxGeometry relative="1" as="geometry" />
        </mxCell>
        <mxCell id="diTY_OehHmzAD5Bzxsb2-54" value="PBombillo4Izq" style="rounded=1;whiteSpace=wrap;html=1;fontSize=12;glass=0;strokeWidth=1;shadow=0;" vertex="1" parent="WIyWlLk6GJQsqaUBKTNV-1">
          <mxGeometry x="160" y="1010" width="120" height="40" as="geometry" />
        </mxCell>
        <mxCell id="diTY_OehHmzAD5Bzxsb2-55" style="edgeStyle=orthogonalEdgeStyle;rounded=0;orthogonalLoop=1;jettySize=auto;html=1;" edge="1" parent="WIyWlLk6GJQsqaUBKTNV-1" source="diTY_OehHmzAD5Bzxsb2-56" target="diTY_OehHmzAD5Bzxsb2-60">
          <mxGeometry relative="1" as="geometry">
            <Array as="points">
              <mxPoint x="530" y="1070" />
              <mxPoint x="220" y="1070" />
            </Array>
          </mxGeometry>
        </mxCell>
        <mxCell id="diTY_OehHmzAD5Bzxsb2-56" value="Delay &amp;nbsp;X Time" style="rounded=1;whiteSpace=wrap;html=1;fontSize=12;glass=0;strokeWidth=1;shadow=0;" vertex="1" parent="WIyWlLk6GJQsqaUBKTNV-1">
          <mxGeometry x="470" y="1010" width="120" height="40" as="geometry" />
        </mxCell>
        <mxCell id="diTY_OehHmzAD5Bzxsb2-57" style="edgeStyle=orthogonalEdgeStyle;rounded=0;orthogonalLoop=1;jettySize=auto;html=1;" edge="1" parent="WIyWlLk6GJQsqaUBKTNV-1" source="diTY_OehHmzAD5Bzxsb2-58" target="diTY_OehHmzAD5Bzxsb2-61">
          <mxGeometry relative="1" as="geometry" />
        </mxCell>
        <mxCell id="diTY_OehHmzAD5Bzxsb2-58" value="PBombillo5Dere" style="rounded=1;whiteSpace=wrap;html=1;fontSize=12;glass=0;strokeWidth=1;shadow=0;" vertex="1" parent="WIyWlLk6GJQsqaUBKTNV-1">
          <mxGeometry x="320" y="1090" width="110" height="40" as="geometry" />
        </mxCell>
        <mxCell id="diTY_OehHmzAD5Bzxsb2-59" value="" style="edgeStyle=orthogonalEdgeStyle;rounded=0;orthogonalLoop=1;jettySize=auto;html=1;" edge="1" parent="WIyWlLk6GJQsqaUBKTNV-1" source="diTY_OehHmzAD5Bzxsb2-60" target="diTY_OehHmzAD5Bzxsb2-58">
          <mxGeometry relative="1" as="geometry" />
        </mxCell>
        <mxCell id="diTY_OehHmzAD5Bzxsb2-60" value="PBombillo5Izq" style="rounded=1;whiteSpace=wrap;html=1;fontSize=12;glass=0;strokeWidth=1;shadow=0;" vertex="1" parent="WIyWlLk6GJQsqaUBKTNV-1">
          <mxGeometry x="160" y="1090" width="120" height="40" as="geometry" />
        </mxCell>
        <mxCell id="diTY_OehHmzAD5Bzxsb2-64" style="edgeStyle=orthogonalEdgeStyle;rounded=0;orthogonalLoop=1;jettySize=auto;html=1;entryX=0;entryY=0.5;entryDx=0;entryDy=0;" edge="1" parent="WIyWlLk6GJQsqaUBKTNV-1" source="diTY_OehHmzAD5Bzxsb2-61" target="diTY_OehHmzAD5Bzxsb2-10">
          <mxGeometry relative="1" as="geometry">
            <mxPoint x="100" y="130" as="targetPoint" />
            <Array as="points">
              <mxPoint x="530" y="1150" />
              <mxPoint x="140" y="1150" />
              <mxPoint x="140" y="140" />
            </Array>
          </mxGeometry>
        </mxCell>
        <mxCell id="diTY_OehHmzAD5Bzxsb2-61" value="Delay &amp;nbsp;X Time" style="rounded=1;whiteSpace=wrap;html=1;fontSize=12;glass=0;strokeWidth=1;shadow=0;" vertex="1" parent="WIyWlLk6GJQsqaUBKTNV-1">
          <mxGeometry x="470" y="1090" width="120" height="40" as="geometry" />
        </mxCell>
      </root>
    </mxGraphModel>
  </diagram>
</mxfile>
